<?xml version="1.0" standalone="no"?>
<!DOCTYPE svg PUBLIC "-//W3C//DTD SVG 20010904//EN"
 "http://www.w3.org/TR/2001/REC-SVG-20010904/DTD/svg10.dtd">
<svg version="1.0" xmlns="http://www.w3.org/2000/svg"
 width="260.000000pt" height="260.000000pt" viewBox="0 0 260.000000 260.000000"
 preserveAspectRatio="xMidYMid meet">
<metadata>
Created by potrace 1.11, written by Peter Selinger 2001-2013
</metadata>
<g transform="translate(0.000000,260.000000) scale(0.100000,-0.100000)"
fill="#000000" stroke="none">
<path d="M1167 2299 c-128 -21 -309 -103 -427 -196 -134 -105 -330 -298 -330
-326 0 -4 17 -15 39 -26 44 -23 88 -71 108 -120 20 -48 22 -61 29 -175 2 -54
11 -127 18 -162 13 -61 13 -64 -10 -85 -25 -23 -45 -74 -40 -99 27 -142 43
-174 92 -192 19 -6 34 -17 35 -23 13 -271 195 -506 450 -579 31 -9 73 -25 94
-36 50 -25 100 -25 150 0 21 11 63 27 94 36 99 28 191 84 266 159 107 108 164
229 180 384 2 24 6 44 7 45 69 27 83 42 101 106 34 124 32 145 -14 195 -18 20
-18 23 1 122 33 173 44 329 28 429 -27 164 -144 299 -296 340 -37 10 -71 24
-76 33 -41 67 -170 147 -271 166 -51 10 -178 12 -228 4z m214 -69 c76 -14 152
-56 203 -110 24 -25 45 -51 47 -58 2 -7 26 -15 53 -17 144 -15 254 -128 287
-293 16 -85 6 -254 -25 -402 -13 -63 -24 -108 -25 -100 -1 8 -3 58 -6 110 -6
133 -42 226 -117 297 -57 55 -178 104 -178 73 0 -11 -100 -79 -152 -102 -79
-36 -164 -52 -339 -63 -208 -13 -348 -87 -410 -220 -16 -33 -29 -71 -30 -85
l0 -25 -10 23 c-13 32 -17 62 -24 156 -3 44 -8 104 -10 131 -7 91 -44 165
-113 231 l-27 25 95 93 c276 269 538 382 781 336z m333 -591 c59 -39 91 -81
115 -150 23 -68 21 -47 21 -209 l0 -140 41 16 c31 13 46 14 65 6 29 -14 30
-30 8 -117 -14 -54 -20 -65 -38 -66 -11 -1 -28 -3 -36 -4 -8 -1 -20 -3 -26 -4
-7 0 -14 -35 -17 -88 -6 -99 -8 -110 -33 -173 -41 -105 -138 -221 -227 -273
-24 -15 -80 -38 -123 -52 -43 -15 -89 -33 -102 -41 -31 -20 -93 -20 -123 -1
-13 8 -60 27 -104 42 -224 74 -369 259 -383 490 -2 50 -9 93 -15 97 -6 3 -23
5 -38 3 -17 -3 -33 3 -45 16 -9 10 -15 19 -12 19 4 0 0 21 -8 47 -20 68 -18
92 10 105 19 8 34 7 65 -6 l41 -16 0 63 c1 132 73 220 218 266 69 22 113 29
232 36 108 6 140 12 220 37 79 25 142 56 195 97 22 17 43 31 46 31 3 0 27 -14
53 -31z"/>
<path d="M1631 1962 c-8 -15 -7 -23 4 -32 23 -19 50 -8 50 20 0 32 -39 41 -54
12z"/>
<path d="M1631 1832 c-12 -22 3 -42 30 -42 23 0 32 15 24 40 -8 25 -41 26 -54
2z"/>
<path d="M995 1146 c-27 -27 -26 -57 1 -87 35 -39 107 -8 107 44 0 62 -64 87
-108 43z"/>
<path d="M1515 1146 c-27 -27 -26 -57 1 -87 35 -39 107 -8 107 44 0 62 -64 87
-108 43z"/>
</g>
</svg>
